<svg width="551" height="627" viewBox="0 0 551 627" fill="none" xmlns="http://www.w3.org/2000/svg">
<path opacity="0.2" d="M473.456 624H56.0091C26.6884 624 3 600.326 3 571.022V72.5334C3 43.2301 26.6884 19.5556 56.0091 19.5556H473.456C502.777 19.5556 526.465 43.2301 526.465 72.5334V571.022C526.465 600.326 502.777 624 473.456 624Z" fill="#1E1B19" stroke="#1E1B19" stroke-width="6" stroke-miterlimit="10" stroke-linecap="round" stroke-linejoin="round"/>
<path d="M494.991 595.193H77.5441C48.2234 595.193 24.535 571.519 24.535 542.215V94.0557C24.535 64.7523 48.2234 41.0779 77.5441 41.0779H494.991C524.311 41.0779 548 64.7523 548 94.0557V542.215C548 571.519 524.311 595.193 494.991 595.193Z" fill="#355A5C"/>
<path d="M494.991 570.36H77.5441C48.2234 570.36 24.535 546.685 24.535 517.382V542.215C24.535 571.519 48.2234 595.193 77.5441 595.193H494.991C524.311 595.193 548 571.519 548 542.215V517.382C548 546.685 524.311 570.36 494.991 570.36Z" fill="#355A5C"/>
<path d="M494.991 595.193H77.5441C48.2234 595.193 24.535 571.519 24.535 542.215V94.0557C24.535 64.7523 48.2234 41.0779 77.5441 41.0779H494.991C524.311 41.0779 548 64.7523 548 94.0557V542.215C548 571.519 524.311 595.193 494.991 595.193Z" stroke="#2D4749" stroke-width="6" stroke-miterlimit="10" stroke-linecap="round" stroke-linejoin="round"/>
<path d="M494.991 557.115H77.5441C48.2234 557.115 24.535 533.441 24.535 504.137V55.9779C24.535 26.6745 48.2234 3 77.5441 3H494.991C524.311 3 548 26.6745 548 55.9779V504.137C548 533.441 524.311 557.115 494.991 557.115Z" fill="#367579"/>
<path d="M494.991 557.115H77.5441C48.2234 557.115 24.535 533.441 24.535 504.137V55.9779C24.535 26.6745 48.2234 3 77.5441 3H494.991C524.311 3 548 26.6745 548 55.9779V504.137C548 533.441 524.311 557.115 494.991 557.115Z" fill="#367579"/>
<path d="M55.5121 504.137V55.9779C55.5121 26.6745 79.2006 3 108.521 3H77.5441C48.2234 3 24.535 26.6745 24.535 55.9779V504.137C24.535 533.441 48.2234 557.115 77.5441 557.115H108.521C79.2006 557.115 55.5121 533.441 55.5121 504.137Z" fill="#355A5C"/>
<path d="M494.991 3H464.014C493.334 3 517.023 26.6745 517.023 55.9779V504.137C517.023 533.441 493.334 557.115 464.014 557.115H494.991C524.312 557.115 548 533.441 548 504.137V55.9779C548 26.6745 524.312 3 494.991 3Z" fill="#367579"/>
<path d="M494.991 557.115H77.5441C48.2234 557.115 24.535 533.441 24.535 504.137V55.9779C24.535 26.6745 48.2234 3 77.5441 3H494.991C524.311 3 548 26.6745 548 55.9779V504.137C548 533.441 524.311 557.115 494.991 557.115Z" stroke="#2D4749" stroke-width="6" stroke-miterlimit="10" stroke-linecap="round" stroke-linejoin="round"/>
<path d="M471.799 177.993H100.736C93.4468 177.993 87.4833 172.033 87.4833 164.748V78.659C87.4833 71.3746 93.4468 65.4146 100.736 65.4146H471.799C479.088 65.4146 485.052 71.3746 485.052 78.659V164.748C485.052 172.033 479.088 177.993 471.799 177.993Z" fill="#807E7E"/>
<path d="M424.257 92.7313L421.109 89.4202L424.257 86.2746H448.608L451.755 88.9235L448.442 92.7313H424.257Z" fill="#2D4749"/>
<path opacity="0.2" d="M416.968 117.896V93.5591L420.116 90.4135L423.263 93.5591V117.896L420.116 121.041L416.968 117.896Z" fill="#2D4749"/>
<path d="M449.436 117.896V93.5591L452.584 89.7513L455.731 93.5591V117.896L452.584 121.041L449.436 117.896Z" fill="#2D4749"/>
<path opacity="0.2" d="M424.257 125.015L421.109 121.869L424.257 118.724H448.442L451.755 121.869L448.442 125.015H424.257Z" fill="#2D4749"/>
<path opacity="0.2" d="M416.968 150.841V126.505L420.116 123.359L423.263 126.505V150.841L420.116 153.987L416.968 150.841Z" fill="#2D4749"/>
<path d="M449.436 150.841V126.505L452.584 122.862L455.731 126.505V150.841L452.584 153.987L449.436 150.841Z" fill="#2D4749"/>
<path opacity="0.2" d="M424.257 158.126L421.109 154.815L424.257 151.669H448.442L451.755 154.815L448.442 158.126H424.257Z" fill="#2D4749"/>
<path d="M366.941 92.7313L363.628 89.4202L366.941 86.2746H391.126L394.274 88.9235L391.126 92.7313H366.941Z" fill="#2D4749"/>
<path opacity="0.2" d="M359.652 117.896V93.5591L362.799 90.4135L365.947 93.5591V117.896L362.799 121.041L359.652 117.896Z" fill="#2D4749"/>
<path d="M392.12 117.896V93.5591L395.268 89.7513L398.415 93.5591V117.896L395.268 121.041L392.12 117.896Z" fill="#2D4749"/>
<path d="M366.941 125.015L363.628 121.869L366.941 118.724H391.126L394.274 121.869L391.126 125.015H366.941Z" fill="#2D4749"/>
<path opacity="0.2" d="M359.652 150.841V126.505L362.799 123.359L365.947 126.505V150.841L362.799 153.987L359.652 150.841Z" fill="#2D4749"/>
<path d="M392.12 150.841V126.505L395.268 122.862L398.415 126.505V150.841L395.268 153.987L392.12 150.841Z" fill="#2D4749"/>
<path d="M366.941 158.126L363.628 154.815L366.941 151.669H391.126L394.274 154.815L391.126 158.126H366.941Z" fill="#2D4749"/>
<g opacity="0.2">
<path d="M251.812 92.7313L248.664 89.4202L251.812 86.2746H276.163L279.31 88.9235L276.163 92.7313H251.812Z" fill="#2D4749"/>
<path d="M244.523 117.896V93.5591L247.836 90.4135L250.983 93.5591V117.896L247.836 121.041L244.523 117.896Z" fill="#2D4749"/>
<path d="M276.991 117.896V93.5591L280.138 89.7513L283.451 93.5591V117.896L280.138 121.041L276.991 117.896Z" fill="#2D4749"/>
<path d="M251.812 125.015L248.664 121.869L251.812 118.724H276.163L279.31 121.869L276.163 125.015H251.812Z" fill="#2D4749"/>
<path d="M244.523 150.841V126.505L247.836 123.359L250.983 126.505V150.841L247.836 153.987L244.523 150.841Z" fill="#2D4749"/>
<path d="M276.991 150.841V126.505L280.138 122.862L283.451 126.505V150.841L280.138 153.987L276.991 150.841Z" fill="#2D4749"/>
<path d="M251.812 158.126L248.664 154.815L251.812 151.669H276.163L279.31 154.815L276.163 158.126H251.812Z" fill="#2D4749"/>
</g>
<g opacity="0.2">
<path d="M309.293 92.7313L306.146 89.4202L309.293 86.2746H333.644L336.792 88.9235L333.479 92.7313H309.293Z" fill="#2D4749"/>
<path d="M302.005 117.896V93.5591L305.152 90.4135L308.465 93.5591V117.896L305.152 121.041L302.005 117.896Z" fill="#2D4749"/>
<path d="M334.473 117.896V93.5591L337.62 89.7513L340.933 93.5591V117.896L337.62 121.041L334.473 117.896Z" fill="#2D4749"/>
<path d="M309.293 125.015L306.146 121.869L309.293 118.724H333.644L336.792 121.869L333.644 125.015H309.293Z" fill="#2D4749"/>
<path d="M302.005 150.841V126.505L305.152 123.359L308.465 126.505V150.841L305.152 153.987L302.005 150.841Z" fill="#2D4749"/>
<path d="M334.473 150.841V126.505L337.62 122.862L340.933 126.505V150.841L337.62 153.987L334.473 150.841Z" fill="#2D4749"/>
<path d="M309.293 158.126L306.146 154.815L309.293 151.669H333.644L336.792 154.815L333.644 158.126H309.293Z" fill="#2D4749"/>
</g>
<g opacity="0.2">
<path d="M137.014 92.7313L133.701 89.4202L137.014 86.2746H161.199L164.347 88.9235L161.199 92.7313H137.014Z" fill="#2D4749"/>
<path d="M129.725 117.896V93.5591L132.872 90.4135L136.02 93.5591V117.896L132.872 121.041L129.725 117.896Z" fill="#2D4749"/>
<path d="M162.193 117.896V93.5591L165.34 89.7513L168.488 93.5591V117.896L165.34 121.041L162.193 117.896Z" fill="#2D4749"/>
<path d="M137.014 125.015L133.701 121.869L137.014 118.724H161.199L164.347 121.869L161.199 125.015H137.014Z" fill="#2D4749"/>
<path d="M129.725 150.841V126.505L132.872 123.359L136.02 126.505V150.841L132.872 153.987L129.725 150.841Z" fill="#2D4749"/>
<path d="M162.193 150.841V126.505L165.34 122.862L168.488 126.505V150.841L165.34 153.987L162.193 150.841Z" fill="#2D4749"/>
<path d="M137.014 158.126L133.701 154.815L137.014 151.669H161.199L164.347 154.815L161.199 158.126H137.014Z" fill="#2D4749"/>
</g>
<g opacity="0.2">
<path d="M194.33 92.7313L191.182 89.4202L194.33 86.2746H218.681L221.828 88.9235L218.681 92.7313H194.33Z" fill="#2D4749"/>
<path d="M187.207 117.896V93.5591L190.354 90.4135L193.502 93.5591V117.896L190.354 121.041L187.207 117.896Z" fill="#2D4749"/>
<path d="M219.509 117.896V93.5591L222.822 89.7513L225.97 93.5591V117.896L222.822 121.041L219.509 117.896Z" fill="#2D4749"/>
<path d="M194.33 125.015L191.182 121.869L194.33 118.724H218.681L221.828 121.869L218.681 125.015H194.33Z" fill="#2D4749"/>
<path d="M187.207 150.841V126.505L190.354 123.359L193.502 126.505V150.841L190.354 153.987L187.207 150.841Z" fill="#2D4749"/>
<path d="M219.509 150.841V126.505L222.822 122.862L225.97 126.505V150.841L222.822 153.987L219.509 150.841Z" fill="#2D4749"/>
<path d="M194.33 158.126L191.182 154.815L194.33 151.669H218.681L221.828 154.815L218.681 158.126H194.33Z" fill="#2D4749"/>
</g>
<path opacity="0.43" d="M471.799 101.837H100.736C93.4468 101.837 87.4833 95.8768 87.4833 88.5924V78.659C87.4833 71.3746 93.4468 65.4146 100.736 65.4146H471.799C479.088 65.4146 485.052 71.3746 485.052 78.659V88.5924C485.052 95.8768 479.088 101.837 471.799 101.837Z" fill="#807E7E"/>
<path d="M471.799 177.993H100.736C93.4468 177.993 87.4833 172.033 87.4833 164.748V78.659C87.4833 71.3746 93.4468 65.4146 100.736 65.4146H471.799C479.088 65.4146 485.052 71.3746 485.052 78.659V164.748C485.052 172.033 479.088 177.993 471.799 177.993Z" stroke="#2D4749" stroke-width="6" stroke-miterlimit="10" stroke-linecap="round" stroke-linejoin="round"/>
<path d="M168.653 344.873H89.1398C81.8511 344.873 75.8875 338.913 75.8875 331.628V252.162C75.8875 244.877 81.8511 238.917 89.1398 238.917H168.653C175.942 238.917 181.906 244.877 181.906 252.162V331.628C181.906 339.078 175.942 344.873 168.653 344.873Z" fill="#355A5C" stroke="#355A5C" stroke-width="6" stroke-miterlimit="10"/>
<path d="M315.423 344.873H235.909C228.62 344.873 222.657 338.913 222.657 331.628V252.162C222.657 244.877 228.62 238.917 235.909 238.917H315.423C322.711 238.917 328.675 244.877 328.675 252.162V331.628C328.675 339.078 322.711 344.873 315.423 344.873Z" fill="#355A5C" stroke="#355A5C" stroke-width="6" stroke-miterlimit="10"/>
<path d="M168.653 491.39H89.1398C81.8511 491.39 75.8875 485.43 75.8875 478.145V398.678C75.8875 391.394 81.8511 385.434 89.1398 385.434H168.653C175.942 385.434 181.906 391.394 181.906 398.678V478.145C181.906 485.595 175.942 491.39 168.653 491.39Z" fill="#355A5C" stroke="#355A5C" stroke-width="6" stroke-miterlimit="10"/>
<path d="M315.423 491.39H235.909C228.62 491.39 222.657 485.43 222.657 478.145V398.678C222.657 391.394 228.62 385.434 235.909 385.434H315.423C322.711 385.434 328.675 391.394 328.675 398.678V478.145C328.675 485.595 322.711 491.39 315.423 491.39Z" fill="#355A5C" stroke="#355A5C" stroke-width="6" stroke-miterlimit="10"/>
<path d="M461.198 491.39H381.684C374.395 491.39 368.432 485.43 368.432 478.145V252.162C368.432 244.877 374.395 238.917 381.684 238.917H461.198C468.486 238.917 474.45 244.877 474.45 252.162V478.145C474.45 485.595 468.486 491.39 461.198 491.39Z" fill="#355A5C" stroke="#355A5C" stroke-width="6" stroke-miterlimit="10"/>
<path d="M326.024 334.939H246.511C239.222 334.939 233.258 328.979 233.258 321.695V242.228C233.258 234.944 239.222 228.984 246.511 228.984H326.024C333.313 228.984 339.277 234.944 339.277 242.228V321.695C339.277 329.145 333.313 334.939 326.024 334.939Z" fill="#32F0FF"/>
<path d="M471.799 480.629H392.286C384.997 480.629 379.033 474.669 379.033 467.384V242.228C379.033 234.944 384.997 228.984 392.286 228.984H471.799C479.088 228.984 485.052 234.944 485.052 242.228V467.384C485.052 474.834 479.088 480.629 471.799 480.629Z" fill="#72C7BB"/>
<path d="M398.746 469.04C395.268 469.04 392.286 466.225 392.286 462.583V228.984C384.997 228.984 379.033 234.944 379.033 242.228V467.384C379.033 474.669 384.997 480.629 392.286 480.629H471.799C478.591 480.629 484.058 475.496 484.886 469.04H398.746Z" fill="#72C7BB"/>
<path d="M471.799 480.629H392.286C384.997 480.629 379.033 474.669 379.033 467.384V242.228C379.033 234.944 384.997 228.984 392.286 228.984H471.799C479.088 228.984 485.052 234.944 485.052 242.228V467.384C485.052 474.834 479.088 480.629 471.799 480.629Z" stroke="#2D4749" stroke-width="6" stroke-miterlimit="10" stroke-linecap="round" stroke-linejoin="round"/>
<path d="M455.897 333.615H408.189V345.535H455.897V333.615Z" fill="#2D4749"/>
<path d="M455.897 351.495H408.189V363.415H455.897V351.495Z" fill="#2D4749"/>
<path d="M450.927 243.387H458.878C465.008 243.387 469.977 248.354 469.977 254.479V287.094" stroke="#DBD9D9" stroke-width="3" stroke-miterlimit="10" stroke-linecap="round" stroke-linejoin="round"/>
<path d="M252.971 323.351C249.492 323.351 246.511 320.536 246.511 316.894V228.984C239.222 228.984 233.258 234.944 233.258 242.228V321.695C233.258 328.979 239.222 334.939 246.511 334.939H326.024C332.816 334.939 338.283 329.807 339.111 323.351H252.971Z" fill="#32F0FF"/>
<path d="M326.024 334.939H246.511C239.222 334.939 233.258 328.979 233.258 321.695V242.228C233.258 234.944 239.222 228.984 246.511 228.984H326.024C333.313 228.984 339.277 234.944 339.277 242.228V321.695C339.277 329.145 333.313 334.939 326.024 334.939Z" stroke="#2D4749" stroke-width="6" stroke-miterlimit="10" stroke-linecap="round" stroke-linejoin="round"/>
<path d="M306.974 276.829H265.395V287.259H306.974V276.829Z" fill="#2D4749"/>
<path d="M313.103 243.387H316.748C320.889 243.387 324.368 246.864 324.368 251.003V262.426" stroke="#DBD9D9" stroke-width="3" stroke-miterlimit="10" stroke-linecap="round" stroke-linejoin="round"/>
<path d="M180.249 334.939H100.736C93.4468 334.939 87.4833 328.979 87.4833 321.695V242.228C87.4833 234.944 93.4468 228.984 100.736 228.984H180.249C187.538 228.984 193.502 234.944 193.502 242.228V321.695C193.502 329.145 187.538 334.939 180.249 334.939Z" fill="#32F0FF"/>
<path d="M107.196 323.351C103.717 323.351 100.736 320.536 100.736 316.894V228.984C93.4468 228.984 87.4833 234.944 87.4833 242.228V321.695C87.4833 328.979 93.4468 334.939 100.736 334.939H180.249C187.041 334.939 192.508 329.807 193.336 323.351H107.196Z" fill="#32F0FF"/>
<path d="M180.249 334.939H100.736C93.4468 334.939 87.4833 328.979 87.4833 321.695V242.228C87.4833 234.944 93.4468 228.984 100.736 228.984H180.249C187.538 228.984 193.502 234.944 193.502 242.228V321.695C193.502 329.145 187.538 334.939 180.249 334.939Z" stroke="#2D4749" stroke-width="6" stroke-miterlimit="10" stroke-linecap="round" stroke-linejoin="round"/>
<path d="M158.88 276.829H117.301V287.259H158.88V276.829Z" fill="#2D4749"/>
<path d="M143.268 302.838L143.268 261.283L132.832 261.283L132.832 302.838L143.268 302.838Z" fill="#2D4749"/>
<path d="M166.5 243.387H170.144C174.286 243.387 177.764 246.864 177.764 251.003V262.426" stroke="#DBD9D9" stroke-width="3" stroke-miterlimit="10" stroke-linecap="round" stroke-linejoin="round"/>
<path d="M180.249 480.629H100.736C93.4468 480.629 87.4833 474.669 87.4833 467.384V387.917C87.4833 380.633 93.4468 374.673 100.736 374.673H180.249C187.538 374.673 193.502 380.633 193.502 387.917V467.384C193.502 474.834 187.538 480.629 180.249 480.629Z" fill="#32F0FF"/>
<path d="M107.196 469.04C103.717 469.04 100.736 466.225 100.736 462.583V374.673C93.4468 374.673 87.4833 380.633 87.4833 387.917V467.384C87.4833 474.669 93.4468 480.629 100.736 480.629H180.249C187.041 480.629 192.508 475.496 193.336 469.04H107.196Z" fill="#32F0FF"/>
<path d="M180.249 480.629H100.736C93.4468 480.629 87.4833 474.669 87.4833 467.384V387.917C87.4833 380.633 93.4468 374.673 100.736 374.673H180.249C187.538 374.673 193.502 380.633 193.502 387.917V467.384C193.502 474.834 187.538 480.629 180.249 480.629Z" stroke="#2D4749" stroke-width="6" stroke-miterlimit="10" stroke-linecap="round" stroke-linejoin="round"/>
<path d="M158.805 438.682L129.413 409.29L122.036 416.667L151.428 446.059L158.805 438.682Z" fill="#2D4749"/>
<path d="M129.523 446.044L158.923 416.661L151.544 409.286L122.143 438.669L129.523 446.044Z" fill="#2D4749"/>
<path d="M166.5 390.235H170.144C174.286 390.235 177.764 393.712 177.764 397.851V409.274" stroke="#DBD9D9" stroke-width="3" stroke-miterlimit="10" stroke-linecap="round" stroke-linejoin="round"/>
<path d="M326.024 480.629H246.511C239.222 480.629 233.258 474.669 233.258 467.384V387.917C233.258 380.633 239.222 374.673 246.511 374.673H326.024C333.313 374.673 339.277 380.633 339.277 387.917V467.384C339.277 474.834 333.313 480.629 326.024 480.629Z" fill="#32F0FF"/>
<path d="M252.971 469.04C249.492 469.04 246.511 466.225 246.511 462.583V374.673C239.222 374.673 233.258 380.633 233.258 387.917V467.384C233.258 474.669 239.222 480.629 246.511 480.629H326.024C332.816 480.629 338.283 475.496 339.111 469.04H252.971Z" fill="#32F0FF"/>
<path d="M326.024 480.629H246.511C239.222 480.629 233.258 474.669 233.258 467.384V387.917C233.258 380.633 239.222 374.673 246.511 374.673H326.024C333.313 374.673 339.277 380.633 339.277 387.917V467.384C339.277 474.834 333.313 480.629 326.024 480.629Z" stroke="#2D4749" stroke-width="6" stroke-miterlimit="10" stroke-linecap="round" stroke-linejoin="round"/>
<path d="M306.974 422.519H265.395V432.949H306.974V422.519Z" fill="#2D4749"/>
<path d="M291.509 448.475L291.509 438.045L281.073 438.045L281.073 448.475L291.509 448.475Z" fill="#2D4749"/>
<path d="M291.415 417.256L291.415 406.826L280.978 406.826L280.978 417.256L291.415 417.256Z" fill="#2D4749"/>
<path d="M313.103 390.235H316.748C320.889 390.235 324.368 393.712 324.368 397.851V409.274" stroke="#DBD9D9" stroke-width="3" stroke-miterlimit="10" stroke-linecap="round" stroke-linejoin="round"/>
</svg>
